#!OML:ASF I:\golf\golf\golf 2\Subject 1\2002-09-07\Subject1.ASF
:FULLY-SPECIFIED
:DEGREES
229
root -7.3813 17.5823 3.7496 -7.72946 49.7764 -19.8033
lowerback 2.55839 -5.77894 -15.6218
upperback 3.56003 -7.68176 -1.48116
thorax 4.25262 -4.26001 6.85097
lowerneck -6.52285 16.1972 5.83457
upperneck 26.5856 25.8596 -10.8453
head 12.0946 11.2031 -1.33074
rclavicle -2.0276e-014 0
rhumerus -9.21533 -5.11636 -94.885
rradius 73.7281
rwrist -52.1518
rhand -62.4898 5.56584
rfingers 7.12502
rthumb -34.5188 -21.1012
lclavicle -2.0276e-014 0
lhumerus 83.8606 -67.226 25.4206
lradius 26.026
lwrist 13.472
lhand 3.84396 24.9744
lfingers 7.12502
lthumb -150.733 232.692
rfemur -30.2608 9.44462 28.0373
rtibia 31.3923
rfoot -5.83659 21.3003
rtoes 21.2186
lfemur -8.14639 19.5082 9.8286
ltibia 37.3368
lfoot -5.94321 12.0021
ltoes -37.9553
230
root -7.37819 17.5847 3.81565 -7.98942 49.0779 -19.8278
lowerback 2.5176 -6.00902 -16.0142
upperback 3.61869 -7.9721 -1.5018
thorax 4.46894 -4.43135 6.99895
lowerneck -6.08751 16.4959 5.80819
upperneck 25.6725 26.2253 -11.2998
head 11.7602 11.3909 -1.47733
rclavicle -5.00937e-014 3.49861e-014
rhumerus -8.72651 -5.4752 -94.3544
rradius 75.3693
rwrist -50.7246
rhand -63.1727 7.40063
rfingers 7.12502
rthumb -35.1668 -19.1163
lclavicle -5.00937e-014 3.49861e-014
lhumerus 82.7734 -66.4359 28.2907
lradius 25.509
lwrist 12.2731
lhand 3.37278 23.4435
lfingers 7.12502
lthumb -151.183 231.239
rfemur -29.7038 9.64989 28.5809
rtibia 31.2764
rfoot -5.7761 21.6881
rtoes 21.2641
lfemur -7.63532 19.5912 10.4591
ltibia 37.8503
lfoot -5.09121 11.8051
ltoes -38.8815
231
root -7.37427 17.5863 3.87794 -8.21371 48.4333 -19.8637
lowerback 2.51045 -6.25825 -16.3087
upperback 3.64378 -8.29628 -1.54249
thorax 4.6226 -4.61003 7.07484
lowerneck -5.74659 16.812 5.71479
upperneck 24.8003 26.6014 -11.6691
head 11.4439 11.582 -1.57604
rclavicle 1.11319e-014 2.54444e-014
rhumerus -8.18074 -5.88134 -93.851
rradius 76.9315
rwrist -49.1588
rhand -63.9189 8.73255
rfingers 7.12502
rthumb -35.8741 -17.6148
lclavicle 1.11319e-014 2.54444e-014
lhumerus 63.4486 -64.6136 52.2843
lradius 22.748
lwrist 2.47121
lhand 3.8978 20.1693
lfingers 7.12502
lthumb -150.682 227.878
rfemur -29.1866 9.87872 29.0726
rtibia 31.133
rfoot -5.55385 22.0293
rtoes 21.9315
lfemur -7.23877 19.6822 11.0827
ltibia 38.4246
lfoot -4.43838 11.4707
ltoes -39.0422
232
root -7.36775 17.5918 3.92332 -8.20753 48.1796 -20.103
lowerback 2.44127 -6.67967 -16.068
upperback 3.48266 -8.85462 -1.63559
thorax 4.56734 -4.86122 6.79922
lowerneck -5.48822 17.1155 5.61542
upperneck 24.1531 26.9581 -11.8662
head 11.2029 11.7649 -1.60935
rclavicle 2.8625e-014 5.725e-014
rhumerus -7.65168 -6.22244 -93.276
rradius 78.4426
rwrist -47.825
rhand -64.411 8.95594
rfingers 7.12502
rthumb -36.3402 -17.2763
lclavicle 2.8625e-014 5.725e-014
lhumerus 70.811 -64.6727 44.7576
lradius 23.7324
lwrist 5.24029
lhand 2.14128 19.2132
lfingers 7.12502
lthumb -152.36 227.203
rfemur -29.179 9.62659 29.5275
rtibia 30.9981
rfoot -5.38556 22.5815
rtoes 22.515
lfemur -7.58207 19.46 11.4945
ltibia 38.9931
lfoot -3.83202 11.2541
ltoes -38.3269
233
root -7.36485 17.5949 3.97533 -8.32761 47.6643 -19.9989
lowerback 2.74994 -6.9129 -16.3359
upperback 3.33073 -9.23548 -1.70688
thorax 4.35393 -5.03208 6.87968
lowerneck -5.15002 17.3977 5.46085
upperneck 23.5912 27.2805 -11.9639
head 10.9538 11.9411 -1.61906
rclavicle 9.93923e-014 0
rhumerus -7.15277 -6.48005 -92.5649
rradius 79.8899
rwrist -46.7399
rhand -64.5912 10.5457
rfingers 7.12502
rthumb -36.5108 -15.6437
lclavicle 9.93923e-014 0
lhumerus 73.7503 -64.1568 42.6398
lradius 24.0802
lwrist 5.79355
lhand 0.764768 18.0199
lfingers 7.12502
lthumb -153.677 226.213
rfemur -28.7215 9.49545 29.896
rtibia 30.9119
rfoot -5.36577 23.2605
rtoes 22.669
lfemur -7.2582 19.1417 11.8806
ltibia 39.4512
lfoot -3.40914 11.2261
ltoes -36.6409
234
root -7.3626 17.5956 4.03425 -8.42466 46.9988 -19.7154
lowerback 3.00446 -7.03594 -16.9306
upperback 3.25313 -9.45853 -1.72298
thorax 4.28456 -5.14915 7.18847
lowerneck -4.88994 17.6072 5.34436
upperneck 23.0347 27.5299 -12.1903
head 10.7442 12.0717 -1.67768
rclavicle 2.3059e-014 3.18055e-015
rhumerus -6.53048 -6.83557 -91.7682
rradius 81.301
rwrist -45.5208
rhand -64.6491 13.2381
rfingers 7.12502
rthumb -36.5656 -12.9374
lclavicle 2.3059e-014 3.18055e-015
lhumerus 74.4146 -63.4611 43.4795
lradius 24.1119
lwrist 5.05305
lhand -0.319279 16.7907
lfingers 7.12502
lthumb -154.715 225.135
rfemur -28.1308 9.53476 30.1912
rtibia 30.8683
rfoot -4.98701 23.866
rtoes 23.869
lfemur -6.62644 18.9399 12.2516
ltibia 39.8307
lfoot -2.66887 11.1224
ltoes -36.8216
235
root -7.36038 17.6007 4.09348 -8.44183 46.3794 -19.5062
lowerback 3.24766 -7.21892 -16.9272
upperback 3.0609 -9.75609 -2.03906
thorax 3.95272 -5.24934 6.87782
lowerneck -4.66563 17.85 5.51348
upperneck 22.6509 27.7732 -12.1915
head 10.609 12.2272 -1.68999
rclavicle -6.22196e-014 2.22639e-014
rhumerus -6.19296 -7.39947 -91.4276
rradius 82.7611
rwrist -44.0256
rhand -64.6748 14.9333
rfingers 7.12502
rthumb -36.5899 -11.236
lclavicle -6.22196e-014 2.22639e-014
lhumerus 74.9571 -63.0765 43.9814
lradius 24.229
lwrist 4.28517
lhand -1.68743 15.6879
lfingers 7.12502
lthumb -156.027 224.211
rfemur -27.6996 9.73709 30.429
rtibia 30.8586
rfoot -4.46906 24.3537
rtoes 25.8388
lfemur -6.14919 18.9209 12.6325
ltibia 40.1445
lfoot -1.64698 10.8916
ltoes -37.9149
236
root -7.3583 17.6064 4.14966 -8.38985 45.8064 -19.2943
lowerback 3.42212 -7.44152 -16.9666
upperback 2.87892 -10.0973 -2.25587
thorax 3.70586 -5.38275 6.68104
lowerneck -4.48712 18.15 5.41646
upperneck 22.1918 28.0911 -12.1369
head 10.4149 12.406 -1.64437
rclavicle 7.61345e-014 5.40694e-014
rhumerus -5.68097 -7.83261 -91.0206
rradius 84.1211
rwrist -42.2642
rhand -64.7894 15.2692
rfingers 7.12502
rthumb -36.6984 -10.8726
lclavicle 7.61345e-014 5.40694e-014
lhumerus 75.8943 -62.5697 44.056
lradius 24.4717
lwrist 3.81635
lhand -3.43044 14.7052
lfingers 7.12502
lthumb -157.699 223.438
rfemur -27.35 9.87035 30.6392
rtibia 30.8387
rfoot -3.83985 24.8564
rtoes 27.9331
lfemur -5.79917 18.9002 12.9495
ltibia 40.4422
lfoot -0.802107 10.7241
ltoes -37.7295
237
root -7.35699 17.604 4.20483 -8.41641 45.2005 -19.1836
lowerback 3.47327 -7.64562 -17.0833
upperback 2.79227 -10.3847 -2.35771
thorax 3.65514 -5.51448 6.62088
lowerneck -4.44892 18.4408 5.2035
upperneck 21.7208 28.4151 -12.1317
head 10.2352 12.5683 -1.58826
rclavicle -1.15295e-014 5.08889e-014
rhumerus -4.80791 -8.12658 -90.4559
rradius 85.394
rwrist -40.498
rhand -64.9116 15.0274
rfingers 7.12502
rthumb -36.814 -11.085
lclavicle -1.15295e-014 5.08889e-014
lhumerus 76.8719 -61.9054 44.2432
lradius 24.7247
lwrist 3.35006
lhand -5.03248 13.7365
lfingers 7.12502
lthumb -159.238 222.646
rfemur -27.0133 9.83013 31.0406
rtibia 30.7967
rfoot -3.15665 25.3405
rtoes 29.4298
lfemur -5.43542 18.873 13.3559
ltibia 40.7544
lfoot 0.0670031 10.5265
ltoes -37.2246
238
root -7.35307 17.6022 4.25937 -8.37936 44.5922 -19.0226
lowerback 3.44908 -7.86879 -17.2913
upperback 2.68294 -10.6886 -2.3925
thorax 3.65714 -5.66083 6.66428
lowerneck -4.22037 18.7153 4.98936
upperneck 21.1373 28.7369 -12.299
head 10.0113 12.7347 -1.60969
rclavicle -1.57636e-013 -1.59028e-014
rhumerus -3.82487 -8.40183 -89.8278
rradius 86.6882
rwrist -39.0615
rhand -64.7504 15.6225
rfingers 7.12502
rthumb -36.6615 -10.5287
lclavicle -1.57636e-013 -1.59028e-014
lhumerus 77.7312 -61.1558 44.6051
lradius 24.9728
lwrist 3.00379
lhand -6.3079 12.8425
lfingers 7.12502
lthumb -160.464 221.881
rfemur -26.7066 9.81875 31.4118
rtibia 30.7574
rfoot -3.00258 25.7878
rtoes 29.4378
lfemur -5.05669 18.7922 13.6872
ltibia 41.0369
lfoot 0.739264 10.5467
ltoes -35.659
239
root -7.3459 17.6051 4.31083 -8.1455 44.0394 -18.6277
lowerback 3.41755 -8.0767 -17.5933
upperback 2.53568 -10.9744 -2.4665
thorax 3.62896 -5.79364 6.71692
lowerneck -3.87951 18.9899 4.81802
upperneck 20.4832 29.0431 -12.4959
head 9.75418 12.9087 -1.66267
rclavicle -4.35587e-014 -2.54444e-014
rhumerus -2.94305 -8.84549 -89.2424
rradius 87.9722
rwrist -37.8243
rhand -64.4456 18.1073
rfingers 7.12502
rthumb -36.3729 -8.11675
lclavicle -4.35587e-014 -2.54444e-014
lhumerus 78.5649 -60.4412 45.0589
lradius 25.2327
lwrist 2.55572
lhand -7.40538 11.9925
lfingers 7.12502
lthumb -161.519 221.135
rfemur -26.4362 9.67629 31.5355
rtibia 30.7413
rfoot -2.85291 26.4069
rtoes 29.6446
lfemur -4.70922 18.6406 13.7411
ltibia 41.2629
lfoot 1.37512 10.6136
ltoes -35.3274
240
root -7.34118 17.6087 4.36136 -7.92267 43.4612 -18.2572
lowerback 3.30399 -8.14158 -17.7759
upperback 2.5318 -11.0298 -2.65928
thorax 3.6992 -5.82093 6.58111
lowerneck -3.99091 19.1677 4.85072
upperneck 20.0711 29.2034 -12.5274
head 9.65147 13.0002 -1.65141
rclavicle 4.1546e-014 -3.18055e-015
rhumerus -1.90569 -9.67929 -88.7111
rradius 89.1144
rwrist -36.4122
rhand -64.195 20.8517
rfingers 7.12502
rthumb -36.1356 -5.43133
lclavicle 4.1546e-014 -3.18055e-015
lhumerus 80.0249 -59.9439 45.0729
lradius 25.4348
lwrist 1.91481
lhand -8.50008 11.1923
lfingers 7.12502
lthumb -162.572 220.431
rfemur -26.1939 9.72652 31.5694
rtibia 30.7842
rfoot -2.14316 26.8968
rtoes 31.5878
lfemur -4.35643 18.5369 13.8114
ltibia 41.4193
lfoot 2.15315 10.5399
ltoes -36.0495
